<svg viewBox="0 0 1286 909" version="1.1" xmlns="http://www.w3.org/2000/svg">
<defs>
<style>
.g0{fill:#FBE5D6;}
.g1{fill:#D9D9D9;}
.g2{fill:none;stroke:#000;stroke-width:2.673;stroke-linejoin:round;}
.g3{fill:none;stroke:#000;stroke-width:1.145;stroke-linejoin:round;}
</style>
</defs>
<path fill-rule="evenodd" d="M34.6 143.2H123V105.3H34.6v37.9Z" class="g0"/>
<path fill-rule="evenodd" d="M358.5 143.2h88.4V105.3H358.5v37.9Z" class="g0"/>
<path fill-rule="evenodd" d="M800.3 143.2h88.4V105.3H800.3v37.9Z" class="g1"/>
<path fill-rule="evenodd" d="M34.6 181H123V143.1H34.6V181Z" class="g0"/>
<path fill-rule="evenodd" d="M196.6 181H285V143.1H196.6V181Z" class="g0"/>
<path fill-rule="evenodd" d="M358.5 181h88.4V143.1H358.5V181Z" class="g0"/>
<path fill-rule="evenodd" d="M800.3 181h88.4V143.1H800.3V181Z" class="g1"/>
<path fill-rule="evenodd" d="M34.6 237.1h1178V203.8H34.6v33.3Z" class="g0"/>
<path fill-rule="evenodd" d="M34.6 660.7H137.7V626.4H34.6v34.3Z" class="g0"/>
<path fill-rule="evenodd" d="M255.5 660.7H358.6V626.4H255.5v34.3Z" class="g0"/>
<path fill-rule="evenodd" d="M476.3 660.7H579.4V626.4H476.3v34.3Z" class="g0"/>
<path fill-rule="evenodd" d="M697.2 660.7H800.3V626.4H697.2v34.3Z" class="g0"/>
<path fill-rule="evenodd" d="M918.1 660.7h117.8V626.4H918.1v34.3Z" class="g0"/>
<path d="M33.3 105.3h680M34.6 104v78.3" class="g2"/>
<path d="M122.9 104v78.3M358.5 104v78.3M446.9 104v78.3" class="g3"/>
<path d="M711.9 104v78.3m87-77h415M800.3 104v78.3" class="g2"/>
<path d="M888.6 104v78.3" class="g3"/>
<path d="M1212.6 104v78.3m0-78.3v78.3" class="g2"/>
<path d="M33.3 143.1h680m-516.7-.5v39.7m88.3-39.7v39.7m514-39.2h415" class="g3"/>
<path d="M33.3 180.9h680m85.6 0h415M33.3 203.8H1213.9M34.6 202.5V604.8" class="g2"/>
<path d="M181.8 202.5V604.8M329.1 202.5V604.8M461.6 202.5V604.8m73.6-402.3V604.8M653 202.5V604.8M800.3 202.5V604.8m73.6-402.3V604.8m88.3-402.3V604.8m88.4-402.3V604.8m88.3-402.3V604.8" class="g3"/>
<path d="M1212.6 202.5V604.8m0-402.3V604.8" class="g2"/>
<path d="M33.3 237.1H1213.9M64.1 236.5V604.8M33.3 273.7H1213.9M33.3 310.3H1213.9M33.3 347H1213.9M33.3 383.6H1213.9M33.3 420.3H1213.9M33.3 456.9H1213.9M33.3 493.5H1213.9M33.3 530.2H1213.9M33.3 566.8H1213.9" class="g3"/>
<path d="M33.3 603.4H1213.9M33.3 626.4H1213.9M34.6 625v37" class="g2"/>
<path d="M137.7 625v37m117.8-37v37m103-37v37m117.8-37v37m103.1-37v37m117.8-37v37m103.1-37v37m117.8-37v37m117.8-37v37" class="g3"/>
<path d="M1212.6 625v37m0-37v37M33.3 660.7H1213.9" class="g2"/>
</svg>
